<?xml version="1.0" encoding="UTF-8"?>
<svg id="b" data-name="Layer 2" xmlns="http://www.w3.org/2000/svg" width="150" height="150" viewBox="0 0 150 150">
  <g id="c" data-name="icons">
    <g id="d" data-name="art">
      <rect width="150" height="150" fill="none"/>
      <path d="M88.639,119.593c-9.666,9.572.697,14.715-6.345,17.94-7.043,3.224-27.941,5.158-47.231-4.778-21.475-11.061-45.293-29.812-8.525-82.014C63.307-1.462,121.649,8.592,135.412,58.439c13.763,49.847-20.543,57.607-25.846,61.18-5.303,3.573-10.958-9.898-20.927-.026Z"/>
      <circle cx="96.822" cy="44.833" r="8.943" fill="#fff"/>
      <circle cx="65.514" cy="51.213" r="8.943" fill="#fff"/>
      <path d="M85.08,92.908s5.23,3.04,9.683-1.947c4.453-4.987,57.611-66.985,50.461-74.316-7.151-7.331-63.69,53.542-68.143,58.529-4.453,4.987-.842,9.841-.842,9.841,0,0-10.429.397-15.062,6.955-4.633,6.558-3.953,11.443-4.119,14.197-.167,2.754.869,13.914-1.102,14.752s11.953.283,17.337-5.91c5.384-6.193,8.509-11.635,9.131-13.398.941-2.665,2.656-8.702,2.656-8.702Z" stroke="#fff" stroke-miterlimit="10" stroke-width="2"/>
      <circle cx="34.046" cy="101.466" r="8.943" fill="#fff"/>
      <circle cx="43.73" cy="71.922" r="8.943" fill="#fff"/>
    </g>
  </g>
</svg>