<?xml version="1.0" encoding="UTF-8"?>
<svg id="b" data-name="Layer 2" xmlns="http://www.w3.org/2000/svg" width="150" height="150" viewBox="0 0 150 150">
  <g id="c" data-name="icons">
    <g id="d" data-name="back_end">
      <g>
        <path d="M19.683,82.547v-15.094c2.43-.167,4.262-.858,5.494-2.075,1.233-1.215,2.188-3.239,2.865-6.069.676-2.83,1.016-7.578,1.016-14.244,0-8.301.258-14.013.774-17.137.516-3.123,1.369-5.586,2.558-7.39,1.188-1.802,2.833-3.249,4.933-4.339,2.101-1.09,5.149-1.635,9.144-1.635h2.273v15.093c-3.004,0-4.972.231-5.905.691-.932.46-1.631,1.235-2.098,2.324-.466,1.089-.699,3.119-.699,6.091,0,5.066-.155,10.886-.466,17.459-.207,4.48-1.001,8.395-2.382,11.744-1.002,2.429-2.711,4.773-5.128,7.034,2.141,1.803,3.859,4.213,5.154,7.232,1.295,3.019,2.063,6.813,2.305,11.383.345,6.205.518,12.053.518,17.545,0,2.893.25,4.895.751,6.006.5,1.11,1.217,1.918,2.15,2.421.932.503,2.866.755,5.801.755v15.094h-2.279c-4.006,0-6.976-.472-8.909-1.415-1.934-.943-3.557-2.358-4.869-4.245-1.312-1.887-2.262-4.34-2.849-7.358-.587-3.019-.88-8.134-.88-15.345,0-7.923-.303-13.3-.907-16.13-.604-2.83-1.528-4.895-2.771-6.195-1.243-1.299-3.107-2.033-5.594-2.201Z"/>
        <path d="M130.317,82.547c-2.403.168-4.216.859-5.435,2.075-1.219,1.216-2.163,3.239-2.832,6.069-.671,2.83-1.005,7.557-1.005,14.181,0,8.302-.26,14.014-.779,17.138-.52,3.122-1.376,5.597-2.57,7.421-1.194,1.823-2.848,3.279-4.959,4.37-2.112,1.09-5.177,1.636-9.192,1.636h-2.285v-15.094c2.918,0,4.854-.252,5.81-.755s1.685-1.311,2.188-2.421c.503-1.111.756-3.072.756-5.88,0-4.78.155-10.523.466-17.231.241-4.737,1.019-8.647,2.331-11.729,1.312-3.082,3.038-5.523,5.18-7.327-2.433-2.26-4.153-4.604-5.161-7.034-1.355-3.265-2.155-7.201-2.397-11.807-.349-6.029-.521-11.828-.521-17.396,0-2.972-.225-4.993-.674-6.06-.449-1.067-1.139-1.842-2.071-2.324s-2.9-.722-5.905-.722v-15.093h2.285c4.016,0,6.993.462,8.933,1.383,1.938.923,3.565,2.327,4.882,4.214,1.314,1.887,2.258,4.339,2.83,7.358.571,3.019.856,8.134.856,15.345,0,7.966.301,13.364.901,16.194s1.528,4.896,2.782,6.195c1.253,1.3,3.115,2.034,5.588,2.201v15.094Z"/>
      </g>
      <rect width="150" height="150" fill="none"/>
    </g>
  </g>
</svg>