<?xml version="1.0" encoding="UTF-8"?>
<svg id="b" data-name="Layer 2" xmlns="http://www.w3.org/2000/svg" width="150" height="150" viewBox="0 0 150 150">
  <g id="c" data-name="icons">
    <g id="d" data-name="blogging">
      <rect width="150" height="150" fill="none"/>
      <path d="M22.264,115.214c.225-.732,12.263-16.993,12.263-16.993,0,0,32.319-5.549,40.473,6.714v19.531c0,1.056-.935,1.867-1.981,1.719l-61.161-8.706,15.108-15.108,2.677.956" fill="none" stroke="#000" stroke-miterlimit="10" stroke-width="10"/>
      <path d="M127.736,115.214c-.225-.732-12.263-16.993-12.263-16.993,0,0-32.319-5.549-40.473,6.714v19.531c0,1.056.935,1.867,1.981,1.719l61.161-8.706-15.108-15.108-2.677.956" fill="none" stroke="#000" stroke-miterlimit="10" stroke-width="10"/>
      <path d="M119.605,23.798c5.945,8.092-28.183,42.385-34.954,51.468-5.926,7.949-24.267,40.445-23.945,14.697.33-26.422,42.326-51.152,42.326-51.152,0,0-35.105,45.094-51.464,73.72" fill="none" stroke="#000" stroke-miterlimit="10" stroke-width="10"/>
    </g>
  </g>
</svg>