<?xml version="1.0" encoding="UTF-8"?>
<svg id="b" data-name="Layer 2" xmlns="http://www.w3.org/2000/svg" width="150" height="150" viewBox="0 0 150 150">
  <g id="c" data-name="icons">
    <g id="d" data-name="seo">
      <line x1="70.911" y1="67.286" x2="70.91" y2="67.286" fill="none" stroke="#000" stroke-miterlimit="10" stroke-width="10"/>
      <rect x="20.505" y="23.275" width="108.991" height="71.339" fill="#fff" stroke="#000" stroke-miterlimit="10" stroke-width="10"/>
      <polygon points="20.505 94.615 129.495 94.615 135 126.725 15 126.725 20.505 94.615" fill="#fff" stroke="#000" stroke-miterlimit="10" stroke-width="10"/>
      <rect x="30.094" y="34.284" width="85.872" height="49.321" fill="#fff" stroke="#000" stroke-miterlimit="10" stroke-width="5"/>
      <line x1="40.966" y1="43.972" x2="73.03" y2="43.972" fill="none" stroke="#000" stroke-miterlimit="10" stroke-width="5"/>
      <line x1="40.966" y1="52.78" x2="100.541" y2="52.78" fill="none" stroke="#000" stroke-miterlimit="10" stroke-width="3"/>
      <line x1="40.966" y1="58.945" x2="95.257" y2="58.945" fill="none" stroke="#000" stroke-miterlimit="10" stroke-width="3"/>
      <line x1="40.966" y1="65.33" x2="100.541" y2="65.33" fill="none" stroke="#000" stroke-miterlimit="10" stroke-width="3"/>
      <line x1="40.966" y1="71.44" x2="100.541" y2="71.44" fill="none" stroke="#000" stroke-miterlimit="10" stroke-width="3"/>
      <line x1="40.966" y1="77.605" x2="95.257" y2="77.605" fill="none" stroke="#000" stroke-miterlimit="10" stroke-width="3"/>
      <g>
        <circle cx="55.644" cy="40.692" r="32.697" fill="#fff"/>
        <path d="M130.588,106.36l-44.073-44.073c4.295-6.121,6.826-13.566,6.826-21.595,0-20.786-16.911-37.697-37.697-37.697S17.947,19.906,17.947,40.692s16.911,37.697,37.697,37.697c9.157,0,17.56-3.285,24.098-8.734l43.776,43.775c.976.977,2.256,1.465,3.535,1.465s2.56-.488,3.535-1.465c1.953-1.952,1.953-5.118,0-7.07ZM27.947,40.692c0-15.272,12.425-27.697,27.697-27.697s27.697,12.425,27.697,27.697-12.425,27.697-27.697,27.697-27.697-12.425-27.697-27.697Z" stroke="#fff" stroke-miterlimit="10" stroke-width="2"/>
      </g>
      <rect width="150" height="150" fill="none"/>
    </g>
  </g>
</svg>