<?xml version="1.0" encoding="UTF-8"?>
<svg id="b" data-name="Layer 2" xmlns="http://www.w3.org/2000/svg" width="508.846" height="233.835" viewBox="0 0 508.846 233.835">
  <g id="c" data-name="chards site">
    <g id="d" data-name="char-char">
      <g>
        <path d="M32.467,85.102c0-19.559,14.398-34.559,34.678-34.559,16.439,0,31.199,9.959,33.239,27.599h-20.999c-1.561-6.36-6.84-8.759-12.24-8.759-8.999,0-14.039,6.479-14.039,15.719,0,9.479,5.4,15.719,13.92,15.719,5.52,0,10.799-2.64,12.359-8.88h20.999c-2.16,18.239-17.279,27.719-33.358,27.719-20.16,0-34.559-15-34.559-34.559Z"/>
        <path d="M110.584,25.704h20.4v33.839c4.799-5.88,10.919-9,19.078-9,14.64,0,23.64,10.2,23.64,26.279v41.278h-20.399v-36.719c0-7.199-2.16-11.399-10.319-11.399-7.92,0-11.999,3.96-11.999,13.08v35.039h-20.4V25.704Z"/>
        <path d="M183.905,85.102c0-20.519,13.199-34.559,29.639-34.559,8.399,0,14.639,3.6,18.839,9v-7.439h20.399l-.12,65.997h-20.399v-7.08c-4.199,5.16-10.199,8.64-18.6,8.64-16.799,0-29.758-14.16-29.758-34.559ZM232.382,85.102c0-9.12-6-15.12-13.919-15.12s-13.92,6-13.92,15.12c0,9.24,6.119,15.119,13.92,15.119,7.919,0,13.919-5.879,13.919-15.119Z"/>
        <path d="M264.783,52.103h20.399v10.199c4.079-8.04,10.799-11.759,19.199-11.759,1.56,0,2.76.12,3.719.36v20.999c-1.319-.12-2.159-.24-4.079-.24-9.6,0-18.839,2.88-18.839,17.879v28.559h-20.399V52.103Z"/>
        <path d="M316.502,25.704h20.398v92.396h-20.398V25.704Z"/>
      </g>
      <rect x="345.471" y="91.679" width="23.2" height="23.2" rx="6.679" ry="6.679" transform="translate(31.554 282.737) rotate(-45)"/>
      <g>
        <path d="M377.276,52.103h20.399v65.997h-20.399V52.103Z"/>
        <path d="M477.592,85.101c0,19.919-15.239,34.559-34.559,34.559s-34.559-14.759-34.559-34.559c0-19.919,15.479-34.559,34.559-34.559s34.559,14.639,34.559,34.559ZM429.114,85.101c0,9.24,6.12,15.119,13.92,15.119,7.92,0,13.919-5.879,13.919-15.119,0-9.12-5.999-15.12-13.919-15.12s-13.92,6-13.92,15.12Z"/>
        <rect x="375.876" y="20.379" width="23.2" height="23.2" rx="6.679" ry="6.679" transform="translate(90.876 283.353) rotate(-45)"/>
      </g>
      <g>
        <path d="M72.356,174.541c.055-.127.1-.254.137-.381-.018-.055-.064-.154-.137-.3l-1.307-3.242c-.072-.109-.146-.163-.219-.163l-2.941-.381c-.146,0-.219-.072-.219-.218v-1.416c0-.182.092-.272.273-.272h11.195c.199,0,.299.091.299.272v1.416c0,.146-.08.218-.244.218l-2.887.327c-.256,0-.328.127-.219.381l6.184,15.172,6.129-15.172c.109-.254.035-.381-.219-.381l-2.887-.327c-.146,0-.219-.072-.219-.218v-1.416c0-.182.092-.272.273-.272h8.961c.199,0,.301.091.301.272v1.362c0,.182-.102.272-.301.272l-3.051.327c-.09.019-.162.073-.217.164l-9.1,22.2c-.035.109-.107.164-.217.164h-1.416c-.109,0-.182-.055-.219-.164l-6.455-15.771-6.975,15.771c-.035.109-.117.164-.244.164h-1.281c-.107,0-.182-.055-.217-.164l-9.098-22.146c-.074-.109-.146-.163-.219-.163l-3.242-.381c-.145,0-.217-.072-.217-.218v-1.416c0-.182.09-.272.271-.272h11.605c-.02-.018-.027-.036-.027-.055.217,0,.326.109.326.327v1.416c0,.146-.082.218-.246.218l-2.887.327c-.254,0-.326.127-.217.381l6.236,15.172,5.148-11.413Z"/>
        <path d="M126.852,179.716c.072,3.033.781,5.448,2.125,7.246,1.543,2.053,3.768,3.078,6.674,3.078,2.324,0,4.502-.635,6.537-1.907.072-.072.137-.09.191-.054.035.054.08.109.135.163l.791,1.362c.035.163-.02.291-.164.381-3.178,2.125-6.393,3.187-9.643,3.187-3.633,0-6.492-1.126-8.58-3.378-2.053-2.179-3.078-5.094-3.078-8.744,0-3.741.998-6.892,2.996-9.452,2.18-2.815,5.084-4.222,8.717-4.222,3.213,0,5.656.917,7.326,2.751,1.617,1.78,2.426,4.286,2.426,7.518,0,.582-.037,1.181-.109,1.798,0,.182-.092.272-.273.272h-16.07ZM133.036,169.855c-2.906,0-4.785,1.617-5.639,4.849-.254.963-.418,1.907-.49,2.833h11.387c.162-5.121-1.59-7.682-5.258-7.682Z"/>
        <path d="M178.46,153.048c.109-.036.199-.054.273-.054h1.605c.182,0,.273.091.273.272v17.243c2.379-2.088,5.057-3.132,8.035-3.132,2.941,0,5.312,1.171,7.109,3.514,1.672,2.179,2.506,4.822,2.506,7.927,0,4.086-1.225,7.482-3.676,10.188-2.543,2.779-5.84,4.168-9.889,4.168-1.471,0-3.123-.236-4.957-.708-1.545-.399-2.752-.944-3.623-1.634v-34.104c0-.181-.1-.272-.301-.272l-4.33-.436c-.201,0-.301-.1-.301-.3v-1.28c0-.181.082-.272.246-.272l7.027-1.117ZM180.612,189.413c.834.835,2.342,1.253,4.521,1.253,3.887,0,6.41-2.07,7.572-6.21.346-1.235.518-2.588.518-4.059,0-2.615-.5-4.73-1.498-6.347-1.197-1.979-3.023-2.969-5.475-2.969-1.816,0-3.66.536-5.529,1.607-.074.037-.109.109-.109.218v16.507Z"/>
        <path d="M245.567,174.541c.055-.127.1-.254.137-.381-.018-.055-.064-.154-.137-.3l-1.307-3.242c-.072-.109-.146-.163-.219-.163l-2.941-.381c-.146,0-.219-.072-.219-.218v-1.416c0-.182.092-.272.273-.272h11.195c.199,0,.299.091.299.272v1.416c0,.146-.08.218-.244.218l-2.887.327c-.256,0-.328.127-.219.381l6.184,15.172,6.129-15.172c.109-.254.035-.381-.219-.381l-2.887-.327c-.146,0-.219-.072-.219-.218v-1.416c0-.182.092-.272.273-.272h8.961c.199,0,.301.091.301.272v1.362c0,.182-.102.272-.301.272l-3.051.327c-.09.019-.162.073-.217.164l-9.1,22.2c-.035.109-.107.164-.217.164h-1.416c-.109,0-.182-.055-.219-.164l-6.455-15.771-6.975,15.771c-.035.109-.117.164-.244.164h-1.281c-.107,0-.182-.055-.217-.164l-9.098-22.146c-.074-.109-.146-.163-.219-.163l-3.242-.381c-.145,0-.217-.072-.217-.218v-1.416c0-.182.09-.272.271-.272h11.605c-.02-.018-.027-.036-.027-.055.217,0,.326.109.326.327v1.416c0,.146-.082.218-.246.218l-2.887.327c-.254,0-.326.127-.217.381l6.236,15.172,5.148-11.413Z"/>
        <path d="M307.581,167.377c3.924,0,6.955,1.144,9.098,3.432,2.088,2.233,3.133,5.33,3.133,9.289,0,3.796-1.125,6.91-3.377,9.343-2.324,2.488-5.367,3.732-9.125,3.732-3.887,0-6.91-1.162-9.072-3.487-2.123-2.251-3.186-5.33-3.186-9.234,0-3.85,1.117-6.973,3.35-9.37,2.307-2.47,5.367-3.705,9.18-3.705ZM306.874,169.801c-2.416,0-4.205,1.017-5.367,3.051-.926,1.617-1.389,3.723-1.389,6.319,0,5.212,1.398,8.744,4.195,10.596,1.016.672,2.242,1.008,3.676,1.008,4.486,0,6.729-3.15,6.729-9.452,0-3.105-.527-5.657-1.58-7.654-1.344-2.579-3.432-3.868-6.264-3.868Z"/>
        <path d="M364.202,167.377c.562,0,1.262.173,2.098.518.834.345,1.453.717,1.852,1.117.055.037.1.109.137.218.035.109.018.2-.055.272l-2.752,3.922c-.127.182-.227.272-.299.272-.055,0-.1-.018-.137-.054-.816-.817-1.715-1.226-2.695-1.226-1.217,0-2.289.536-3.215,1.607l-1.635,1.907c-.145.164-.217.363-.217.599v13.238c0,.164.09.255.271.272l4.74.381c.199.019.299.119.299.3v1.389c0,.182-.1.272-.299.272h-13.701c-.201,0-.301-.091-.301-.272v-1.389c0-.2.1-.3.301-.3l3.895-.381c.182,0,.271-.09.271-.272v-18.414c0-.182-.09-.272-.271-.272l-4.004-.463c-.201,0-.301-.09-.301-.272v-1.28c0-.182.072-.272.219-.272l6.701-1.117c.199-.037.316-.055.354-.055h1.553c.182,0,.273.091.273.272v5.175l2.969-3.459c1.27-1.489,2.588-2.233,3.949-2.233Z"/>
        <path d="M399.058,156.726c0-.181-.092-.272-.273-.272l-4.357-.436c-.182,0-.273-.1-.273-.3v-1.28c0-.181.072-.272.219-.272l7.027-1.117c.109-.036.199-.054.273-.054h1.633c.182,0,.273.091.273.272v24.843c0,.109.035.182.109.218.072.037.162,0,.271-.109l8.199-7.545c.037-.072.045-.145.027-.218-.018-.072-.082-.109-.191-.109l-2.832-.218c-.182-.018-.273-.109-.273-.272v-1.416c0-.182.092-.272.273-.272h10.486c.182,0,.273.091.273.272v1.416c0,.182-.092.272-.273.272l-3.73.327c-.055.018-.119.054-.191.109l-7.355,6.81c-.072.037-.107.091-.107.163,0,.091.018.164.055.218l10.596,12.23c.055.073.109.109.162.109l3.242.327c.182,0,.273.1.273.3v1.389c0,.182-.092.272-.273.272h-11.768c-.182,0-.271-.091-.271-.272v-1.389c0-.181.09-.281.271-.3l2.234-.163c.109,0,.162-.036.162-.109,0-.09-.018-.163-.053-.218l-8.826-10.16c-.072-.072-.174-.082-.301-.027s-.189.136-.189.245v9.779c0,.182.09.272.271.272l2.916.381c.18,0,.271.1.271.3v1.389c0,.182-.092.272-.271.272h-11.768c-.201,0-.301-.091-.301-.272v-1.389c0-.2.1-.3.301-.3l3.785-.381c.182,0,.273-.09.273-.272v-33.042Z"/>
        <path d="M462.868,175.194c-.182-.055-.271-.127-.271-.218l-.898-4.358c0-.145-.074-.254-.219-.327-.908-.417-1.934-.626-3.078-.626-1.961,0-3.314.663-4.059,1.988-.273.491-.408,1.026-.408,1.607,0,1.689,1.344,3.078,4.031,4.167l2.342.954c4.086,1.671,6.129,3.94,6.129,6.81,0,2.488-1.035,4.477-3.105,5.966-1.852,1.343-4.068,2.016-6.646,2.016-1.869,0-4.066-.427-6.592-1.28-.182-.036-.271-.136-.271-.3v-6.456c0-.145.09-.218.271-.218h1.717c.199,0,.299.073.299.218l.873,4.467c.018.073.1.182.244.327,1.271.6,2.588.899,3.949.899,3.197,0,4.795-1.344,4.795-4.031,0-1.58-.816-2.76-2.451-3.542-.273-.126-.771-.354-1.498-.681l-2.506-1.008c-3.941-1.58-5.912-3.904-5.912-6.974,0-2.179.98-3.977,2.941-5.393,1.689-1.217,3.715-1.825,6.076-1.825,1.924,0,3.912.336,5.965,1.008.199.037.299.136.299.3v6.292c0,.146-.1.218-.299.218h-1.717Z"/>
      </g>
      <line x1="477.592" y1="138.136" x2="31.254" y2="138.136" fill="none" stroke="#000" stroke-linecap="round" stroke-miterlimit="10" stroke-width="5"/>
      <rect width="508.846" height="233.835" fill="none"/>
    </g>
  </g>
</svg>