<?xml version="1.0" encoding="UTF-8"?>
<svg id="b" data-name="Layer 2" xmlns="http://www.w3.org/2000/svg" width="508.846" height="233.835" viewBox="0 0 508.846 233.835">
  <g id="c" data-name="chards site">
    <g id="d" data-name="char-char">
      <g>
        <path d="M32.467,85.102c0-19.559,14.398-34.559,34.678-34.559,16.439,0,31.199,9.959,33.239,27.599h-20.999c-1.561-6.36-6.84-8.759-12.24-8.759-8.999,0-14.039,6.479-14.039,15.719,0,9.479,5.4,15.719,13.92,15.719,5.52,0,10.799-2.64,12.359-8.88h20.999c-2.16,18.239-17.279,27.719-33.358,27.719-20.16,0-34.559-15-34.559-34.559Z" fill="#dfdfdf"/>
        <path d="M110.584,25.704h20.4v33.839c4.799-5.88,10.919-9,19.078-9,14.64,0,23.64,10.2,23.64,26.279v41.278h-20.399v-36.719c0-7.199-2.16-11.399-10.319-11.399-7.92,0-11.999,3.96-11.999,13.08v35.039h-20.4V25.704Z" fill="#dfdfdf"/>
        <path d="M183.905,85.102c0-20.519,13.199-34.559,29.639-34.559,8.399,0,14.639,3.6,18.839,9v-7.439h20.399l-.12,65.997h-20.399v-7.08c-4.199,5.16-10.199,8.64-18.6,8.64-16.799,0-29.758-14.16-29.758-34.559ZM232.382,85.102c0-9.12-6-15.12-13.919-15.12s-13.92,6-13.92,15.12c0,9.24,6.119,15.119,13.92,15.119,7.919,0,13.919-5.879,13.919-15.119Z" fill="#dfdfdf"/>
        <path d="M264.783,52.103h20.399v10.199c4.079-8.04,10.799-11.759,19.199-11.759,1.56,0,2.76.12,3.719.36v20.999c-1.319-.12-2.159-.24-4.079-.24-9.6,0-18.839,2.88-18.839,17.879v28.559h-20.399V52.103Z" fill="#dfdfdf"/>
        <path d="M316.502,25.704h20.398v92.396h-20.398V25.704Z" fill="#dfdfdf"/>
      </g>
      <rect x="345.471" y="91.679" width="23.2" height="23.2" rx="6.679" ry="6.679" transform="translate(31.554 282.737) rotate(-45)" fill="#dfdfdf"/>
      <g>
        <path d="M377.276,52.103h20.399v65.997h-20.399V52.103Z" fill="#dfdfdf"/>
        <path d="M477.592,85.101c0,19.919-15.239,34.559-34.559,34.559s-34.559-14.759-34.559-34.559c0-19.919,15.479-34.559,34.559-34.559s34.559,14.639,34.559,34.559ZM429.114,85.101c0,9.24,6.12,15.119,13.92,15.119,7.92,0,13.919-5.879,13.919-15.119,0-9.12-5.999-15.12-13.919-15.12s-13.92,6-13.92,15.12Z" fill="#dfdfdf"/>
        <rect x="375.876" y="20.379" width="23.2" height="23.2" rx="6.679" ry="6.679" transform="translate(90.876 283.353) rotate(-45)" fill="#dfdfdf"/>
      </g>
      <g>
        <path d="M72.357,174.541c.055-.127.1-.254.136-.381-.018-.055-.063-.154-.136-.3l-1.308-3.242c-.072-.109-.146-.163-.218-.163l-2.942-.381c-.146,0-.218-.072-.218-.218v-1.416c0-.182.091-.272.272-.272h11.195c.2,0,.3.091.3.272v1.416c0,.146-.081.218-.245.218l-2.887.327c-.255,0-.327.127-.219.381l6.184,15.172,6.129-15.172c.109-.254.036-.381-.218-.381l-2.888-.327c-.146,0-.218-.072-.218-.218v-1.416c0-.182.091-.272.272-.272h8.962c.199,0,.3.091.3.272v1.362c0,.182-.101.272-.3.272l-3.051.327c-.091.019-.163.073-.218.164l-9.099,22.2c-.036.109-.108.164-.218.164h-1.416c-.109,0-.182-.055-.218-.164l-6.456-15.771-6.974,15.771c-.036.109-.118.164-.245.164h-1.28c-.108,0-.182-.055-.218-.164l-9.098-22.146c-.073-.109-.146-.163-.218-.163l-3.242-.381c-.146,0-.218-.072-.218-.218v-1.416c0-.182.091-.272.272-.272h11.604c-.019-.018-.027-.036-.027-.055.218,0,.326.109.326.327v1.416c0,.146-.081.218-.245.218l-2.887.327c-.255,0-.327.127-.218.381l6.237,15.172,5.148-11.413Z" fill="#dfdfdf"/>
        <path d="M126.852,179.716c.072,3.033.781,5.448,2.125,7.246,1.543,2.053,3.768,3.078,6.674,3.078,2.324,0,4.503-.635,6.537-1.907.072-.072.137-.09.191-.054.036.054.081.109.136.163l.79,1.362c.036.163-.019.291-.163.381-3.179,2.125-6.393,3.187-9.644,3.187-3.632,0-6.492-1.126-8.58-3.378-2.053-2.179-3.078-5.094-3.078-8.744,0-3.741.998-6.892,2.996-9.452,2.18-2.815,5.085-4.222,8.717-4.222,3.214,0,5.656.917,7.327,2.751,1.616,1.78,2.425,4.286,2.425,7.518,0,.582-.037,1.181-.109,1.798,0,.182-.091.272-.272.272h-16.071ZM133.036,169.855c-2.905,0-4.785,1.617-5.639,4.849-.254.963-.418,1.907-.49,2.833h11.387c.163-5.121-1.59-7.682-5.258-7.682Z" fill="#dfdfdf"/>
        <path d="M178.461,153.048c.108-.036.199-.054.272-.054h1.606c.182,0,.272.091.272.272v17.243c2.379-2.088,5.058-3.132,8.036-3.132,2.941,0,5.312,1.171,7.109,3.514,1.671,2.179,2.506,4.822,2.506,7.927,0,4.086-1.226,7.482-3.677,10.188-2.543,2.779-5.839,4.168-9.889,4.168-1.471,0-3.123-.236-4.957-.708-1.544-.399-2.751-.944-3.623-1.634v-34.104c0-.181-.1-.272-.3-.272l-4.331-.436c-.2,0-.3-.1-.3-.3v-1.28c0-.181.082-.272.245-.272l7.028-1.117ZM180.612,189.413c.835.835,2.343,1.253,4.522,1.253,3.886,0,6.41-2.07,7.572-6.21.345-1.235.518-2.588.518-4.059,0-2.615-.5-4.73-1.498-6.347-1.198-1.979-3.023-2.969-5.476-2.969-1.815,0-3.659.536-5.529,1.607-.073.037-.109.109-.109.218v16.507Z" fill="#dfdfdf"/>
        <path d="M245.568,174.541c.055-.127.1-.254.136-.381-.018-.055-.063-.154-.136-.3l-1.308-3.242c-.072-.109-.146-.163-.218-.163l-2.942-.381c-.146,0-.218-.072-.218-.218v-1.416c0-.182.091-.272.272-.272h11.195c.2,0,.3.091.3.272v1.416c0,.146-.081.218-.245.218l-2.887.327c-.255,0-.327.127-.219.381l6.184,15.172,6.129-15.172c.109-.254.036-.381-.218-.381l-2.888-.327c-.146,0-.218-.072-.218-.218v-1.416c0-.182.091-.272.272-.272h8.962c.199,0,.3.091.3.272v1.362c0,.182-.101.272-.3.272l-3.051.327c-.091.019-.163.073-.218.164l-9.099,22.2c-.036.109-.108.164-.218.164h-1.416c-.109,0-.182-.055-.218-.164l-6.456-15.771-6.974,15.771c-.036.109-.118.164-.245.164h-1.28c-.108,0-.182-.055-.218-.164l-9.098-22.146c-.073-.109-.146-.163-.218-.163l-3.242-.381c-.146,0-.218-.072-.218-.218v-1.416c0-.182.091-.272.272-.272h11.604c-.019-.018-.027-.036-.027-.055.218,0,.326.109.326.327v1.416c0,.146-.081.218-.245.218l-2.887.327c-.255,0-.327.127-.218.381l6.237,15.172,5.148-11.413Z" fill="#dfdfdf"/>
        <path d="M307.582,167.377c3.923,0,6.955,1.144,9.098,3.432,2.088,2.233,3.133,5.33,3.133,9.289,0,3.796-1.126,6.91-3.378,9.343-2.324,2.488-5.366,3.732-9.125,3.732-3.887,0-6.91-1.162-9.071-3.487-2.124-2.251-3.187-5.33-3.187-9.234,0-3.85,1.117-6.973,3.351-9.37,2.306-2.47,5.366-3.705,9.18-3.705ZM306.874,169.801c-2.416,0-4.204,1.017-5.366,3.051-.927,1.617-1.39,3.723-1.39,6.319,0,5.212,1.398,8.744,4.195,10.596,1.017.672,2.242,1.008,3.677,1.008,4.485,0,6.729-3.15,6.729-9.452,0-3.105-.527-5.657-1.58-7.654-1.344-2.579-3.432-3.868-6.265-3.868Z" fill="#dfdfdf"/>
        <path d="M364.202,167.377c.563,0,1.263.173,2.098.518.835.345,1.453.717,1.853,1.117.055.037.1.109.136.218.036.109.019.2-.054.272l-2.752,3.922c-.127.182-.227.272-.299.272-.055,0-.101-.018-.137-.054-.817-.817-1.716-1.226-2.696-1.226-1.217,0-2.288.536-3.215,1.607l-1.634,1.907c-.146.164-.218.363-.218.599v13.238c0,.164.09.255.271.272l4.74.381c.199.019.3.119.3.3v1.389c0,.182-.101.272-.3.272h-13.701c-.2,0-.3-.091-.3-.272v-1.389c0-.2.1-.3.3-.3l3.895-.381c.182,0,.272-.09.272-.272v-18.414c0-.182-.091-.272-.272-.272l-4.004-.463c-.2,0-.3-.09-.3-.272v-1.28c0-.182.072-.272.218-.272l6.701-1.117c.199-.037.317-.055.354-.055h1.553c.181,0,.272.091.272.272v5.175l2.969-3.459c1.271-1.489,2.588-2.233,3.949-2.233Z" fill="#dfdfdf"/>
        <path d="M399.057,156.726c0-.181-.091-.272-.272-.272l-4.358-.436c-.182,0-.272-.1-.272-.3v-1.28c0-.181.072-.272.218-.272l7.028-1.117c.108-.036.199-.054.272-.054h1.634c.182,0,.272.091.272.272v24.843c0,.109.036.182.109.218.072.037.163,0,.272-.109l8.199-7.545c.036-.072.045-.145.026-.218-.018-.072-.081-.109-.19-.109l-2.833-.218c-.182-.018-.272-.109-.272-.272v-1.416c0-.182.091-.272.272-.272h10.487c.182,0,.272.091.272.272v1.416c0,.182-.091.272-.272.272l-3.731.327c-.055.018-.118.054-.19.109l-7.355,6.81c-.072.037-.108.091-.108.163,0,.091.018.164.055.218l10.596,12.23c.055.073.109.109.163.109l3.242.327c.181,0,.272.1.272.3v1.389c0,.182-.092.272-.272.272h-11.768c-.182,0-.272-.091-.272-.272v-1.389c0-.181.091-.281.272-.3l2.233-.163c.109,0,.163-.036.163-.109,0-.09-.018-.163-.054-.218l-8.826-10.16c-.072-.072-.173-.082-.3-.027s-.19.136-.19.245v9.779c0,.182.091.272.272.272l2.915.381c.181,0,.272.1.272.3v1.389c0,.182-.092.272-.272.272h-11.768c-.2,0-.3-.091-.3-.272v-1.389c0-.2.1-.3.3-.3l3.786-.381c.182,0,.272-.09.272-.272v-33.042Z" fill="#dfdfdf"/>
        <path d="M462.869,175.194c-.182-.055-.272-.127-.272-.218l-.898-4.358c0-.145-.073-.254-.219-.327-.908-.417-1.934-.626-3.077-.626-1.962,0-3.314.663-4.06,1.988-.272.491-.408,1.026-.408,1.607,0,1.689,1.344,3.078,4.031,4.167l2.343.954c4.086,1.671,6.129,3.94,6.129,6.81,0,2.488-1.035,4.477-3.105,5.966-1.853,1.343-4.068,2.016-6.646,2.016-1.87,0-4.067-.427-6.592-1.28-.182-.036-.272-.136-.272-.3v-6.456c0-.145.091-.218.272-.218h1.716c.2,0,.3.073.3.218l.872,4.467c.018.073.1.182.245.327,1.271.6,2.588.899,3.949.899,3.196,0,4.795-1.344,4.795-4.031,0-1.58-.817-2.76-2.452-3.542-.272-.126-.771-.354-1.498-.681l-2.506-1.008c-3.941-1.58-5.911-3.904-5.911-6.974,0-2.179.98-3.977,2.941-5.393,1.689-1.217,3.714-1.825,6.075-1.825,1.924,0,3.913.336,5.965,1.008.2.037.3.136.3.3v6.292c0,.146-.1.218-.3.218h-1.716Z" fill="#dfdfdf"/>
      </g>
      <line x1="477.592" y1="138.136" x2="31.254" y2="138.136" fill="none" stroke="#dfdfdf" stroke-linecap="round" stroke-miterlimit="10" stroke-width="5"/>
      <rect width="508.846" height="233.835" fill="none"/>
    </g>
  </g>
</svg>